<?xml version="1.0" encoding="utf-8"?>
<!-- Generator: Adobe Illustrator 15.0.0, SVG Export Plug-In . SVG Version: 6.00 Build 0)  -->
<!DOCTYPE svg PUBLIC "-//W3C//DTD SVG 1.1//EN" "http://www.w3.org/Graphics/SVG/1.1/DTD/svg11.dtd">
<svg version="1.1" id="Layer_1" xmlns="http://www.w3.org/2000/svg" xmlns:xlink="http://www.w3.org/1999/xlink" x="0px" y="0px"
	  viewBox="0 0 716 641.108" enable-background="new 0 0 716 641.108" xml:space="preserve">
<linearGradient id="SVGID_1_" gradientUnits="userSpaceOnUse" x1="359.8037" y1="9.1367" x2="359.8037" y2="638.1334">
	<stop  offset="0" style="stop-color:#5F5F5F"/>
	<stop  offset="1" style="stop-color:#000000"/>
</linearGradient>
<path id="path1" opacity="0.5" fill="url(#SVGID_1_)" d="M668.883,58.118c-16.237-2.036-33.134-0.12-48.922,5.513
	c-1.527,0.569-3.025,1.138-4.583,1.767l-227.985,94.639L339.968,39.214c-4.914-14.47-21.54-25.134-43.62-27.891l-2.276-0.299
	c-15.488-1.948-33.225,0.12-48.593,5.632c-9.288,3.356-22.08,9.527-30.228,19.922L10.633,297.397
	c-8.208,10.486-9.286,22.769-2.905,33.704c7.16,12.223,22.318,20.642,41.642,23.098c16.088,2.038,33.523,0.089,49.162-5.512
	c13.151-4.674,23.487-11.445,29.868-19.564l124.119-157.761l26.123,67.616c3.446,8.568,14.052,23.487,46.318,27.562
	c16.177,2.036,33.014,0.178,48.711-5.423c1.469-0.54,2.936-1.109,4.465-1.738l109.198-45.267L383.767,344.942
	c-0.449,0.569-0.869,1.198-1.289,1.856c0,0-0.869,1.26-1.229,1.829c-13.571,20.222-15.157,50.21-3.714,69.923l117.318,195.928
	c11.024,18.875,32.564,27.173,52.428,20.133c8.178-2.876,15.368-8.149,21.389-15.608c16.448-20.522,19.413-52.308,6.861-73.938
	l-75.136-123.19c-7.219-15.997-5.901-32.624,2.367-45.956l159.53-199.943c1.828-2.307,3.506-4.944,4.973-7.849l41.673-52.487
	c8.088-10.186,9.288-22.229,3.296-32.985C705.222,70.072,689.614,61.174,668.883,58.118z"/>
<linearGradient id="SVGID_2_" gradientUnits="userSpaceOnUse" x1="354.1909" y1="5.9905" x2="354.1909" y2="632.1351">
	<stop  offset="0" style="stop-color:#5F5F5F"/>
	<stop  offset="1" style="stop-color:#000000"/>
</linearGradient>
<path id="path2" opacity="0.5" fill="url(#SVGID_2_)" d="M661.453,46.584c-16.117-1.976-32.925,0.06-48.593,5.962
	c-1.498,0.569-2.996,1.169-4.523,1.827L381.88,152.698l-47.245-123.46c-4.884-14.769-21.422-25.583-43.351-28.281l-2.276-0.299
	C273.61-1.23,255.995,0.988,240.745,6.74c-9.257,3.476-21.96,9.856-30.079,20.551L7.008,295.959
	c-8.179,10.815-9.257,23.427-2.905,34.602c7.1,12.523,22.198,21.091,41.432,23.488c16.027,1.976,33.404-0.151,48.952-5.962
	c13.122-4.914,23.397-11.923,29.749-20.311L247.785,165.1l26.005,69.205c3.445,8.748,14.02,23.998,46.136,27.981
	c16.088,2.009,32.834-0.029,48.443-5.872c1.469-0.569,2.906-1.138,4.434-1.796l108.571-47.126L378.525,342.395
	c-0.48,0.6-0.869,1.258-1.318,1.947c0,0-0.84,1.289-1.199,1.887c-13.481,20.851-15.038,51.678-3.594,71.872l117.198,199.973
	c10.994,19.353,32.504,27.741,52.277,20.402c8.149-3.026,15.31-8.509,21.271-16.237c16.357-21.241,19.233-53.985,6.681-76.156
	l-75.076-125.346c-7.25-16.417-5.961-33.523,2.247-47.245l158.211-206.174c1.827-2.397,3.505-5.094,4.914-8.059l41.282-54.045
	c7.999-10.486,9.167-22.8,3.175-33.794C697.583,58.598,682.064,49.58,661.453,46.584z"/>
<linearGradient id="SVGID_3_" gradientUnits="userSpaceOnUse" x1="356.9382" y1="3.4343" x2="356.9382" y2="698.3464">
	<stop  offset="0" style="stop-color:#5F5F5F"/>
	<stop  offset="1" style="stop-color:#000000"/>
</linearGradient>
<path id="path3" opacity="0.5" fill="url(#SVGID_3_)" d="M655.461,43.079c-16.208-1.318-32.834,1.349-48.143,7.7
	c-1.469,0.598-2.937,1.258-4.435,1.976L382.27,157.761L328.044,38.736c-5.752-14.29-22.918-24.267-45.058-26.064l-2.276-0.209
	c-15.519-1.258-33.045,1.587-47.993,7.819c-9.078,3.774-21.422,10.545-28.941,21.331L15.397,312.766
	c-7.58,10.935-7.88,23.308-0.869,33.974c7.85,11.953,23.487,19.711,42.9,21.269c16.148,1.289,33.434-1.498,48.654-7.819
	c12.821-5.303,22.708-12.583,28.58-21.031l114.231-163.963l29.958,66.658c3.954,8.418,15.368,22.889,47.694,25.495
	c16.177,1.318,32.805-1.319,48.053-7.669c1.438-0.6,2.847-1.229,4.344-1.918l105.722-50.33l-95.088,135.771
	c-0.42,0.598-0.809,1.258-1.169,1.947c0,0-0.778,1.289-1.109,1.887c-12.282,20.882-12.102,50.989,0.45,70.193l125.975,191.735
	c12.015,18.364,33.884,25.614,53.147,17.646c7.938-3.267,14.739-8.868,20.251-16.628c15.128-21.3,16.177-53.236,2.487-74.268
	l-79.779-120.881c-8.119-15.668-7.79-32.386-0.36-46.107l146.317-207.403c1.708-2.397,3.207-5.094,4.464-8.059l38.197-54.405
	c7.43-10.574,7.908-22.649,1.347-33.164C692.13,53.444,676.163,45.206,655.461,43.079z"/>
<linearGradient id="SVGID_4_" gradientUnits="userSpaceOnUse" x1="283.8369" y1="5.9883" x2="335.701" y2="187.0374">
	<stop  offset="0" style="stop-color:#5F5F5F"/>
	<stop  offset="1" style="stop-color:#000000"/>
</linearGradient>
<path id="path4" opacity="0.3" fill-rule="evenodd" clip-rule="evenodd" fill="url(#SVGID_4_)" d="M1.407,324.449l202.489-84.633l40.235-57.76
	l4.972-6.351l16.208,36.01l0.778,2.098L668.823,45.476c-4.194-1.109-8.658-1.918-13.361-2.397
	c-16.208-1.318-32.834,1.349-48.143,7.7c-1.469,0.598-2.937,1.258-4.435,1.976l-95.209,45.328l-123.579,53.626L339.968,39.214
	c-1.078-3.236-2.787-6.261-4.974-9.077l-0.358-0.9c-4.884-14.769-21.422-25.583-43.351-28.281l-2.276-0.299
	C273.61-1.23,255.995,0.988,240.745,6.74c-9.257,3.476-21.96,9.856-30.079,20.551L7.008,295.959
	C0.298,304.827-1.649,314.924,1.407,324.449z"/>
</svg>
